# xmcd CD database file
# Generated: Mon Jan 13 10:22:26 2003 by KSCD
# 
# Track frame offsets:
#       150
#       23587
#       42412
#       58427
#       83240
#       100375
#       115997
#       134800
#       152550
#       173235
#       191522
#       215482
#
# Disc length: 3087 seconds
#
# Revision: 1
# Processed by: cddbd v1.4PL0 Copyright (c) Steve Scherf et al.
# Submitted via: Kscd 1.3.3
#
DISCID=ad0c0d0c
DTITLE=Smokey Mountain - Smokiest Hits
DYEAR=1900
DGENRE=
TTITLE0=Paraiso
TTITLE1=Kailan
TTITLE2=Da Coconut Nut
TTITLE3=I Believe in You
TTITLE4=Kahit Habang Buhay
TTITLE5=Can This Be Love
TTITLE6=Mama
TTITLE7=Nahan Ka?
TTITLE8=One Less Lonely Heart
TTITLE9=Sabi Mo
TTITLE10=What's Wrong With Dat
TTITLE11=Better World
EXTD=
EXTT0=
EXTT1=
EXTT2=
EXTT3=
EXTT4=
EXTT5=
EXTT6=
EXTT7=
EXTT8=
EXTT9=
EXTT10=
EXTT11=
PLAYORDER=
